<svg width="156" height="34" viewBox="0 0 156 34" fill="none" xmlns="http://www.w3.org/2000/svg">
<rect x="0.5" y="0.5" width="155" height="32.4162" stroke="#882B8D"/>
<path d="M30.26 8.45679V21.9568H34.41V23.4568H28.76V8.45679H30.26ZM36.2325 23.4568V12.6068H37.6825V23.4568H36.2325ZM36.2325 11.3968V9.05679H37.6825V11.3968H36.2325ZM40.5294 23.4568V12.6068H41.9794V14.1668L41.7294 13.8668C41.9827 13.4201 42.3194 13.0768 42.7394 12.8368C43.1594 12.5968 43.646 12.4768 44.1994 12.4768H44.6694V13.9268H43.8994C43.3194 13.9268 42.8527 14.1068 42.4994 14.4668C42.1527 14.8268 41.9794 15.3101 41.9794 15.9168V23.4568H40.5294ZM49.2939 23.6968C48.6139 23.6968 48.0172 23.5501 47.5039 23.2568C46.9906 22.9635 46.5872 22.5535 46.2939 22.0268C46.0006 21.4935 45.8539 20.8735 45.8539 20.1668V15.8768C45.8539 15.1835 46.0006 14.5735 46.2939 14.0468C46.5872 13.5135 46.9906 13.1001 47.5039 12.8068C48.0172 12.5068 48.6139 12.3568 49.2939 12.3568C50.3139 12.3568 51.1372 12.6801 51.7639 13.3268C52.3906 13.9735 52.7039 14.8235 52.7039 15.8768V18.2468H47.0139V16.8468H51.2539V15.8268C51.2539 15.2201 51.0772 14.7335 50.7239 14.3668C50.3772 13.9935 49.9006 13.8068 49.2939 13.8068C48.6872 13.8068 48.2039 13.9935 47.8439 14.3668C47.4839 14.7335 47.3039 15.2201 47.3039 15.8268V20.2168C47.3039 20.8235 47.4839 21.3135 47.8439 21.6868C48.2039 22.0601 48.6872 22.2468 49.2939 22.2468C49.9006 22.2468 50.3772 22.0601 50.7239 21.6868C51.0772 21.3135 51.2539 20.8235 51.2539 20.2168V19.9668H52.7039V20.1668C52.7039 21.2201 52.3906 22.0735 51.7639 22.7268C51.1372 23.3735 50.3139 23.6968 49.2939 23.6968ZM59.4356 23.4568V8.45679H60.8856V23.4568H59.4356ZM64.0225 12.8568L64.5125 11.1868H63.8825V8.45679H65.3825V11.1868L64.8925 12.8568H64.0225ZM70.8805 23.6968C69.8805 23.6968 69.1071 23.4201 68.5605 22.8668C68.0138 22.3135 67.7405 21.6135 67.7405 20.7668C67.7405 20.2401 67.8371 19.8035 68.0305 19.4568C68.2238 19.1035 68.4705 18.8168 68.7705 18.5968C69.0771 18.3768 69.4005 18.2001 69.7405 18.0668C70.1471 17.9001 70.5605 17.7701 70.9805 17.6768C71.4071 17.5768 71.8005 17.4735 72.1605 17.3668C72.5205 17.2535 72.8105 17.1001 73.0305 16.9068C73.2505 16.7135 73.3605 16.4401 73.3605 16.0868V15.8268C73.3605 15.2201 73.1771 14.7335 72.8105 14.3668C72.4505 13.9935 71.9705 13.8068 71.3705 13.8068C70.7638 13.8068 70.2838 13.9935 69.9305 14.3668C69.5838 14.7335 69.4105 15.2201 69.4105 15.8268V16.1268H67.9605V15.8768C67.9605 14.8235 68.2738 13.9735 68.9005 13.3268C69.5271 12.6801 70.3505 12.3568 71.3705 12.3568C72.0438 12.3568 72.6371 12.5068 73.1505 12.8068C73.6705 13.1001 74.0771 13.5101 74.3705 14.0368C74.6638 14.5635 74.8105 15.1768 74.8105 15.8768V23.4568H73.3605V21.9568L73.6005 22.2768C73.3471 22.7301 72.9905 23.0801 72.5305 23.3268C72.0705 23.5735 71.5205 23.6968 70.8805 23.6968ZM71.1805 22.3168C71.8605 22.3168 72.3938 22.1268 72.7805 21.7468C73.1671 21.3601 73.3605 20.8101 73.3605 20.0968V18.1768C72.9538 18.4301 72.5005 18.6035 72.0005 18.6968C71.5005 18.7835 71.0238 18.9035 70.5705 19.0568C70.1705 19.1901 69.8405 19.3801 69.5805 19.6268C69.3205 19.8668 69.1905 20.2101 69.1905 20.6568C69.1905 21.1435 69.3638 21.5435 69.7105 21.8568C70.0571 22.1635 70.5471 22.3168 71.1805 22.3168ZM77.4825 23.4568V12.6068H78.9325V14.1668L78.6825 13.8668C78.9358 13.4201 79.2725 13.0768 79.6925 12.8368C80.1125 12.5968 80.5992 12.4768 81.1525 12.4768H81.6225V13.9268H80.8525C80.2725 13.9268 79.8058 14.1068 79.4525 14.4668C79.1058 14.8268 78.9325 15.3101 78.9325 15.9168V23.4568H77.4825ZM87.197 23.5768C86.1637 23.5768 85.3337 23.2501 84.707 22.5968C84.087 21.9368 83.777 21.0535 83.777 19.9468V13.9568H81.827V12.5868H83.777V9.85679H85.227V12.5868H87.927V13.9568H85.227V19.9468C85.227 20.6068 85.407 21.1368 85.767 21.5368C86.127 21.9301 86.6037 22.1268 87.197 22.1268H87.927V23.5768H87.197ZM89.7677 23.4568V12.6068H91.2177V23.4568H89.7677ZM89.7677 11.3968V9.05679H91.2177V11.3968H89.7677ZM97.1845 23.6968C96.5045 23.6968 95.9079 23.5501 95.3945 23.2568C94.8812 22.9635 94.4779 22.5535 94.1845 22.0268C93.8912 21.4935 93.7445 20.8735 93.7445 20.1668V15.8768C93.7445 15.1835 93.8912 14.5735 94.1845 14.0468C94.4779 13.5135 94.8812 13.1001 95.3945 12.8068C95.9079 12.5068 96.5045 12.3568 97.1845 12.3568C98.2045 12.3568 99.0279 12.6801 99.6545 13.3268C100.281 13.9735 100.595 14.8235 100.595 15.8768V16.0768H99.1445V15.8268C99.1445 15.2201 98.9679 14.7335 98.6145 14.3668C98.2679 13.9935 97.7912 13.8068 97.1845 13.8068C96.5779 13.8068 96.0945 13.9935 95.7345 14.3668C95.3745 14.7335 95.1945 15.2201 95.1945 15.8268V20.2168C95.1945 20.8235 95.3745 21.3135 95.7345 21.6868C96.0945 22.0601 96.5779 22.2468 97.1845 22.2468C97.7912 22.2468 98.2679 22.0601 98.6145 21.6868C98.9679 21.3135 99.1445 20.8235 99.1445 20.2168V19.9668H100.595V20.1668C100.595 21.2201 100.281 22.0735 99.6545 22.7268C99.0279 23.3735 98.2045 23.6968 97.1845 23.6968ZM102.756 23.4568V8.45679H104.206V23.4568H102.756ZM110.173 23.6968C109.493 23.6968 108.896 23.5501 108.383 23.2568C107.869 22.9635 107.466 22.5535 107.173 22.0268C106.879 21.4935 106.733 20.8735 106.733 20.1668V15.8768C106.733 15.1835 106.879 14.5735 107.173 14.0468C107.466 13.5135 107.869 13.1001 108.383 12.8068C108.896 12.5068 109.493 12.3568 110.173 12.3568C111.193 12.3568 112.016 12.6801 112.643 13.3268C113.269 13.9735 113.583 14.8235 113.583 15.8768V18.2468H107.893V16.8468H112.133V15.8268C112.133 15.2201 111.956 14.7335 111.603 14.3668C111.256 13.9935 110.779 13.8068 110.173 13.8068C109.566 13.8068 109.083 13.9935 108.723 14.3668C108.363 14.7335 108.183 15.2201 108.183 15.8268V20.2168C108.183 20.8235 108.363 21.3135 108.723 21.6868C109.083 22.0601 109.566 22.2468 110.173 22.2468C110.779 22.2468 111.256 22.0601 111.603 21.6868C111.956 21.3135 112.133 20.8235 112.133 20.2168V19.9668H113.583V20.1668C113.583 21.2201 113.269 22.0735 112.643 22.7268C112.016 23.3735 111.193 23.6968 110.173 23.6968Z" fill="#882B8D"/>
</svg>
